<svg version="1.2" xmlns="http://www.w3.org/2000/svg" viewBox="0 0 1000 1000" width="1000" height="1000">
	<title>bag logo</title>
	<style>
		.s0 { fill: #000000 } 
	</style>
	<g id="Folder 1">
		<path class="s0" d="m671.3 273l-40-7.2 7.2-41.9c7.2-38.9-12.5-75.1-43-80.4-14.4-2.7-29.1 1.9-41.9 12.4-13.6 11.4-23.1 28.3-26.8 48l-7.2 41.9-40.4-7.2 7.5-41.9c5.3-28.7 19.7-54.4 40.8-72.1 21.9-18.5 48.7-26 75.1-21.1 52.9 9.4 87.2 66.4 76.3 127.6z"/>
		<path fill-rule="evenodd" class="s0" d="m826.5 821.1c-1.9 48.7-46.4 84.9-94.8 76.2l-366.9-65.3 13.2-19.2c6.4-9.5 19.7-12.1 29.1-5.3l26 18.1c13.3 8.7 31 0.8 32.9-15.1l20.4-166.5c1.9-17-15.9-29-31-21.1l-148.3 78.5c-14 7.2-15.1 26.8-2.3 35.9l26.4 18.1c9.5 6.4 12.1 19.6 5.3 29.1l-24.2 35.1q-0.7 1.5-1.5 2.6l-87.2-15.5c-48.3-8.7-77.7-57.7-62.6-104.2l132.1-405.4c12.5-38.1 51.3-61.1 91-54.3l391.8 69.8c39.6 7.2 68 42.3 66.4 82.7zm-325-494.2c-9-1.5-18.1 4.6-19.6 14-1.5 9.1 4.5 18.1 13.6 19.6 9.4 1.5 18.1-4.5 20-13.6 1.5-9.4-4.5-18.1-14-20zm135.2 24.2c-9.1-1.5-18.2 4.5-19.7 14-1.5 9 4.6 17.7 14 19.6 9.1 1.5 17.7-4.5 19.6-14 1.5-9-4.5-17.7-13.9-19.6z"/>
	</g>
</svg>