<svg version="1.2" xmlns="http://www.w3.org/2000/svg" viewBox="0 0 24 24" width="24" height="24">
	<title>square-4-grid-svgrepo-com-svg</title>
	<style>
		.s0 { fill: #000000 } 
	</style>
	<path fill-rule="evenodd" class="s0" d="m10 2c0.6 0 1 0.4 1 1v7c0 0.6-0.4 1-1 1h-7c-0.6 0-1-0.4-1-1v-7c0-0.6 0.4-1 1-1zm-1 7v-5h-5v5z"/>
	<path fill-rule="evenodd" class="s0" d="m21 2c0.6 0 1 0.4 1 1v7c0 0.6-0.4 1-1 1h-7c-0.6 0-1-0.4-1-1v-7c0-0.6 0.4-1 1-1zm-1 7v-5h-5v5z"/>
	<path fill-rule="evenodd" class="s0" d="m13 14c0-0.6 0.4-1 1-1h7c0.6 0 1 0.4 1 1v7c0 0.6-0.4 1-1 1h-7c-0.6 0-1-0.4-1-1zm2 1v5h5v-5z"/>
	<path fill-rule="evenodd" class="s0" d="m10 13c0.6 0 1 0.4 1 1v7c0 0.6-0.4 1-1 1h-7c-0.6 0-1-0.4-1-1v-7c0-0.6 0.4-1 1-1zm-1 7v-5h-5v5z"/>
</svg>