<svg version="1.2" xmlns="http://www.w3.org/2000/svg" viewBox="0 0 842 595" width="842" height="595">
	<title>VISA-ai</title>
	<style>
		.s0 { fill: #00579f } 
		.s1 { fill: #f9a519 } 
	</style>
	<g id="Layer 1">
		<g id="&lt;Group&gt;">
			<path id="&lt;Path&gt;" class="s0" d="m364.9 354.8l18.1-106h28.9l-18.1 106z"/>
			<path id="&lt;Path&gt;" class="s0" d="m498.6 251.4c-5.7-2.2-14.7-4.5-25.9-4.5-28.5 0-48.7 14.4-48.8 35-0.2 15.2 14.3 23.7 25.3 28.8 11.2 5.2 15 8.5 15 13.2-0.1 7.1-9 10.3-17.3 10.3-11.6 0-17.7-1.6-27.2-5.5l-3.7-1.7-4.1 23.7c6.7 3 19.2 5.5 32.2 5.7 30.4 0 50.1-14.2 50.3-36.3 0.1-12-7.6-21.2-24.2-28.8-10.1-4.9-16.3-8.1-16.3-13.1 0-4.4 5.3-9.1 16.6-9.1 9.4-0.2 16.3 1.9 21.6 4l2.6 1.3z"/>
			<path id="&lt;Compound Path&gt;" fill-rule="evenodd" class="s0" d="m596.2 354.8h-26.9c0 0-2.6-12.1-3.5-15.8-4.2 0-33.7-0.1-37-0.1-1.1 2.9-6.1 15.9-6.1 15.9h-30.3l42.9-97.2c3-6.9 8.2-8.7 15.1-8.7h22.4zm-35.1-37.7c-1.2-5.3-6.7-30.6-6.7-30.6l-1.9-9.2c-1.5 4-4 10.5-3.9 10.2 0 0-9.1 23.5-11.5 29.6z"/>
			<path id="&lt;Path&gt;" class="s0" d="m340.6 248.8l-28.3 72.4-3-14.7c-5.2-17-21.7-35.3-40-44.5l25.9 92.7h30.6l45.5-105.9z"/>
			<path id="&lt;Path&gt;" class="s1" d="m286.1 248.8h-46.6l-0.4 2.2c36.3 8.7 60.3 30 70.2 55.5l-10.1-48.8c-1.8-6.7-6.8-8.7-13.1-8.9z"/>
		</g>
	</g>
</svg>